<svg xmlns="http://www.w3.org/2000/svg" viewBox="0 0 48 48" width="480px" height="480px"><path fill="#e89531" d="M38.818,31.692c-0.412-0.921-1.348-1.461-2.322-1.449c-0.325,0.004-0.653,0.069-0.968,0.202 l-1.14,0.483c-0.02-0.068-0.04-0.126-0.06-0.193c-0.412-0.921-1.342-1.466-2.318-1.461c-0.325,0.002-0.655,0.065-0.972,0.195 l-3.34,1.392l-7.93,3.306l-5.55-1.73c-0.18,0.074-3.243,1.199-5.246,1.962l16.792,6.828l12.514-5.184l-0.75-1.17 C38.799,34.341,39.369,32.91,38.818,31.692z"/><path fill="#ffb74d" d="M43.79,32.5c-0.41-0.95-1.35-1.51-2.32-1.5c-0.33,0-0.66,0.07-0.97,0.21l-8.51,3.72 c0.04,0.63-0.07,1.26-0.31,1.86c-0.17,0.43-0.4,0.82-0.68,1.17c-0.84,1.04-2.11,1.67-3.5,1.67c-0.09,0-0.19,0-0.28-0.01 c-0.47-0.03-0.94-0.13-1.38-0.31l-0.2-0.08c-0.291-0.116-5.427-2.143-9.022-3.562c-0.492-0.214-0.734-0.776-0.536-1.278 c0.203-0.514,0.784-0.767,1.297-0.564l1.784,0.702c0.016,0.005,0.029,0.003,0.045,0.009c2.746,1.076,6.089,2.403,7.074,2.794 l0.094,0.037l0.001,0.001c0.122,0.048,0.191,0.076,0.198,0.079c0.303,0.121,0.616,0.178,0.923,0.178 c0.994,0,1.934-0.597,2.324-1.577c0.511-1.283-0.116-2.736-1.399-3.247c-0.322-0.128-7.912-3.147-10.541-4.141 C17.076,28.356,15.705,28,14.5,28c-3.523,0-8.342,1.836-10.5,2.75L7.375,39l3.77-1.55l13.425,5.37c0.3,0.12,0.62,0.18,0.93,0.18 c0.34,0,0.68-0.07,1-0.21l16-7C43.77,35.24,44.34,33.76,43.79,32.5z"/><path fill="#78909c" d="M30.5,14c-2.484,0-4.5-2.014-4.5-4.5C26,7.016,28.016,5,30.5,5S35,7.016,35,9.5 C35,11.986,32.985,14,30.5,14"/><path fill="#cfd8dc" d="M31.251,11.746h-0.892V8.307l-1.064,0.328V7.916l1.859-0.666h0.097V11.746z"/><path fill="#b0bec5" d="M24,10c-3.86,0-7,3.14-7,7s3.14,7,7,7s7-3.14,7-7S27.86,10,24,10z"/><path fill="#546e7a" d="M24.994,20.974h-1.553v-6.082l-1.853,0.581v-1.268l3.24-1.18h0.166V20.974z"/></svg>