<svg xmlns="http://www.w3.org/2000/svg" viewBox="0 0 48 48" width="480px" height="480px"><path fill="#FFC107" d="M44,36H30V16c0-1.1,0.9-2,2-2h8c0.6,0,1.2,0.3,1.6,0.8l6,7.7c0.3,0.4,0.4,0.8,0.4,1.2V32C48,34.2,46.2,36,44,36z"/><path fill="#9575CD" d="M8,36h22V13c0-2.2-1.8-4-4-4H4v23C4,34.2,5.8,36,8,36z"/><path fill="#9575CD" d="M0 9H10V11H0zM0 14H10V16H0zM0 19H10V21H0zM0 24H10V26H0z"/><g><path fill="#7E57C2" d="M4 11H20V13H4zM4 16H16V18H4zM4 21H12V23H4zM4 26H8V28H4z"/></g><g><path fill="#37474F" d="M39 31A5 5 0 1 0 39 41 5 5 0 1 0 39 31zM16 31A5 5 0 1 0 16 41 5 5 0 1 0 16 31z"/></g><g><path fill="#78909C" d="M39 33.5A2.5 2.5 0 1 0 39 38.5 2.5 2.5 0 1 0 39 33.5zM16 33.5A2.5 2.5 0 1 0 16 38.5 2.5 2.5 0 1 0 16 33.5z"/></g><path fill="#455A64" d="M44,26h-3.6c-0.3,0-0.5-0.1-0.7-0.3l-1.4-1.4c-0.2-0.2-0.4-0.3-0.7-0.3H34c-0.6,0-1-0.4-1-1v-6c0-0.6,0.4-1,1-1h5.5c0.3,0,0.6,0.1,0.8,0.4l4.5,5.4c0.1,0.2,0.2,0.4,0.2,0.6V25C45,25.6,44.6,26,44,26z"/></svg>