<svg xmlns="http://www.w3.org/2000/svg" viewBox="0 0 48 48" width="480px" height="480px"><path fill="#cfd95b" d="M40,45H8V3h22l10,10V45z"/><path fill="#f5f7e1" d="M38.5,14H29V4.5L38.5,14z"/><path fill="#696e2d" d="M13,19h2v6.8c0,1-0.3,1.7-0.8,2.3C13.7,28.7,13,29,12.1,29c-0.9,0-1.6-0.3-2.1-0.8c-0.5-0.5-0.8-1.3-0.8-2.2h2	c0,0.9,0.3,1.4,0.9,1.4c0.6,0,0.9-0.5,0.9-1.6V19z M20.4,26.3c0-0.4-0.1-0.7-0.3-0.9S19.5,25,19,24.8c-1-0.4-1.7-0.8-2.1-1.3	c-0.4-0.5-0.6-1.1-0.6-1.8c0-0.8,0.3-1.5,0.9-2c0.6-0.5,1.3-0.7,2.2-0.7c0.6,0,1.1,0.1,1.6,0.4c0.5,0.3,0.8,0.6,1.1,1.1	c0.3,0.5,0.4,1,0.4,1.6h-2c0-0.5-0.1-0.8-0.3-1c-0.2-0.2-0.5-0.4-0.8-0.4c-0.3,0-0.6,0.1-0.8,0.3s-0.3,0.5-0.3,0.8	c0,0.3,0.1,0.5,0.3,0.7c0.2,0.2,0.6,0.4,1.1,0.7c0.9,0.3,1.6,0.8,2.1,1.3c0.4,0.5,0.6,1.1,0.6,1.9c0,0.8-0.3,1.5-0.8,2	C21,28.8,20.3,29,19.4,29c-0.6,0-1.2-0.1-1.7-0.4c-0.5-0.3-0.9-0.6-1.2-1.1C16.1,27,16,26.5,16,25.8h2c0,0.6,0.1,1,0.3,1.2	c0.2,0.3,0.6,0.4,1.1,0.4C20.1,27.4,20.4,27,20.4,26.3z M38,29h-2l-2.9-6.5V29h-2V19h2l2.9,6.5V19h2V29z M30,24.9	c0,1.3-0.3,2.3-0.9,3c-0.6,0.7-1.5,1.1-2.6,1.1c-1.1,0-1.9-0.4-2.6-1.1c-0.6-0.7-0.9-1.7-0.9-3v-1.7c0-1.3,0.3-2.4,0.9-3.1	c0.6-0.8,1.5-1.1,2.6-1.1c1.1,0,1.9,0.4,2.6,1.1c0.6,0.7,0.9,1.8,0.9,3.1V24.9z M28,23.2c0-0.9-0.1-1.5-0.4-2	c-0.3-0.4-0.6-0.6-1.2-0.6c-0.5,0-0.9,0.2-1.2,0.6c-0.3,0.4-0.4,1-0.4,1.9v1.7c0,0.9,0.1,1.5,0.4,1.9c0.3,0.4,0.6,0.6,1.2,0.6	c0.5,0,0.9-0.2,1.1-0.6s0.4-1,0.4-1.8V23.2z"/><path fill="#455a64" d="M48,38H32l8,10L48,38z"/><path fill="#455a64" d="M37,31h6v12h-6V31z"/></svg>