<svg xmlns="http://www.w3.org/2000/svg"  viewBox="0 0 48 48" width="480px" height="480px"><path fill="#3F51B5" d="M38,11V6c0-0.553-0.447-1-1-1H5C4.448,5,4,5.447,4,6v5H38z"/><path fill="#BBDEFB" d="M4 10H38V39H4z"/><path fill="#1976D2" d="M15 19H31V21H15zM28.444 23H15v2h10.474C26.344 24.181 27.344 23.503 28.444 23zM15 15H31V17H15zM23.792 27H15v2h7.764C23.04 28.296 23.384 27.625 23.792 27zM11 15H13V17H11zM11 19H13V21H11zM11 31H13V33H11zM15 31v2h7c0-.684.071-1.351.191-2H15zM11 23H13V25H11zM11 27H13V29H11z"/><path fill="#F44336" d="M44,34c0,5.523-4.477,10-10,10s-10-4.477-10-10s4.477-10,10-10S44,28.477,44,34"/><g><path fill="#FFF" d="M32.5 28H35.5V40H32.5z" transform="rotate(134.999 34 34)"/><path fill="#FFF" d="M32.501 28H35.501V39.999H32.501z" transform="rotate(-134.999 34 34)"/></g></svg>