<svg xmlns="http://www.w3.org/2000/svg"  viewBox="0 0 48 48" width="480px" height="480px"><path fill="#3F51B5" d="M37.9,12c0,0.6-0.4,1-1,1h-32c-0.6,0-1-0.4-1-1V5c0-0.6,0.4-1,1-1h32c0.6,0,1,0.4,1,1V12z"/><path fill="#BBDEFB" d="M3.9 9H37.9V38H3.9z"/><path fill="#FFC107" d="M42.7,43H23.1c-0.4,0-0.8-0.2-1.1-0.6c-0.2-0.4-0.2-0.9,0-1.3l9.8-17.5c0.3-0.4,0.7-0.6,1.1-0.6c0.4,0,0.8,0.2,1.1,0.6l9.8,17.5c0.2,0.4,0.2,0.9,0,1.3C43.5,42.8,43.1,43,42.7,43z"/><path fill="#1976D2" d="M30.9,20h-16v-2h16V20z M30.9,14h-16v2h16V14z M10.9,16h2v-2h-2V16z M10.9,20h2v-2h-2V20z M10.9,32h2v-2h-2V32z M10.9,24h2v-2h-2V24z M10.9,28h2v-2h-2V28z M30.1,22.6l0.1-0.1l0.1-0.1c0.1-0.1,0.2-0.3,0.4-0.4H14.9v2h14.4L30.1,22.6z M28.2,26H14.9v2h12.2L28.2,26z M26,30H14.9v2h10L26,30z"/><path fill="#5D4037" d="M31.9,40c0-0.1,0-0.3,0.1-0.4c0-0.1,0.1-0.2,0.2-0.3c0.1-0.1,0.2-0.2,0.3-0.2c0.1,0,0.3-0.1,0.4-0.1c0.2,0,0.3,0,0.4,0.1c0.1,0,0.2,0.1,0.3,0.2c0.1,0.1,0.2,0.2,0.2,0.3c0,0.1,0.1,0.3,0.1,0.4s0,0.3-0.1,0.4c0,0.1-0.1,0.2-0.2,0.3c-0.1,0.1-0.2,0.2-0.3,0.2C33.3,41,33.1,41,32.9,41c-0.2,0-0.3,0-0.4-0.1c-0.1-0.1-0.2-0.1-0.3-0.2c-0.1-0.1-0.2-0.2-0.2-0.3C31.9,40.3,31.9,40.1,31.9,40 M31.9,38h2v-8h-2V38z"/></svg>