<svg xmlns="http://www.w3.org/2000/svg" viewBox="0 0 48 48" width="480px" height="480px"><path fill="#c5e1a5" d="M13.5 9.735H15.5V22.265H13.5z" transform="rotate(-61.393 14.5 16)"/><path fill="#7cb342" d="M9 9A4 4 0 1 0 9 17A4 4 0 1 0 9 9Z"/><path fill="#c5e1a5" d="M27.234 14.999H39.764V16.999000000000002H27.234z" transform="rotate(-28.595 33.5 16)"/><path fill="#7cb342" d="M39 9A4 4 0 1 0 39 17A4 4 0 1 0 39 9Z"/><path fill="#c5e1a5" d="M23 8H25V18H23z"/><path fill="#7cb342" d="M24 4A4 4 0 1 0 24 12A4 4 0 1 0 24 4Z"/><path fill="#c5e1a5" d="M32.502 25.736H34.502V38.266H32.502z" transform="rotate(-61.387 33.5 32)"/><path fill="#7cb342" d="M39 31A4 4 0 1 0 39 39A4 4 0 1 0 39 31Z"/><g><path fill="#c5e1a5" d="M8.235 30.998H20.765V32.998000000000005H8.235z" transform="rotate(-28.595 14.5 32)"/><path fill="#7cb342" d="M9 31A4 4 0 1 0 9 39A4 4 0 1 0 9 31Z"/></g><g><path fill="#c5e1a5" d="M23 30H25V40H23z"/><path fill="#7cb342" d="M24 36A4 4 0 1 0 24 44A4 4 0 1 0 24 36Z"/></g><g><path fill="#ff9800" d="M30.222,32H17.778C16.8,32,16,31.2,16,30.222V17.778C16,16.8,16.8,16,17.778,16h12.444 C31.2,16,32,16.8,32,17.778v12.444C32,31.2,31.2,32,30.222,32z"/><path fill="#8a5100" d="M26,21h-4c-0.553,0-1-0.448-1-1s0.447-1,1-1h4c0.553,0,1,0.448,1,1S26.553,21,26,21z"/></g></svg>