<svg xmlns="http://www.w3.org/2000/svg" viewBox="0 0 48 48" width="480px" height="480px"><path fill="#FFC107" d="M42,36H28V16c0-1.1,0.9-2,2-2h8c0.6,0,1.2,0.3,1.6,0.8l6,7.7c0.3,0.4,0.4,0.8,0.4,1.2V32C46,34.2,44.2,36,42,36z"/><path fill="#9575CD" d="M6,36h22V12c0-2.2-1.8-4-4-4H7c-2.8,0-5,2.2-5,5v19C2,34.2,3.8,36,6,36z"/><path fill="#37474F" d="M37 31A5 5 0 1 0 37 41 5 5 0 1 0 37 31zM14 31A5 5 0 1 0 14 41 5 5 0 1 0 14 31z"/><path fill="#78909C" d="M37 33.5A2.5 2.5 0 1 0 37 38.5 2.5 2.5 0 1 0 37 33.5zM14 33.5A2.5 2.5 0 1 0 14 38.5 2.5 2.5 0 1 0 14 33.5z"/><path fill="#455A64" d="M42,26h-3.6c-0.3,0-0.5-0.1-0.7-0.3l-1.4-1.4c-0.2-0.2-0.4-0.3-0.7-0.3H32c-0.6,0-1-0.4-1-1v-6c0-0.6,0.4-1,1-1h5.5c0.3,0,0.6,0.1,0.8,0.4l4.5,5.4c0.1,0.2,0.2,0.4,0.2,0.6V25C43,25.6,42.6,26,42,26z"/><path fill="#FFF" d="M15,11c-5,0-9,4-9,9c0,5,4,9,9,9s9-4,9-9C24,15,20,11,15,11z M15,21c-0.6,0-1-0.4-1-1s0.4-1,1-1s1,0.4,1,1S15.6,21,15,21z"/><path fill="#37474F" d="M16.9,20.5c0-0.2,0.1-0.3,0.1-0.5c0-0.7-0.4-1.4-1-1.7V13h-2v5.3c-0.6,0.3-1,1-1,1.7c0,1.1,0.9,2,2,2c0.2,0,0.3,0,0.5-0.1l2.3,2.3l1.4-1.4L16.9,20.5z M15,21c-0.6,0-1-0.4-1-1s0.4-1,1-1s1,0.4,1,1S15.6,21,15,21z"/></svg>