<svg xmlns="http://www.w3.org/2000/svg" viewBox="0 0 48 48" width="240px" height="240px"><path fill="#90caf9" d="M11,9c0-2.2,1.8-4,4-4h9.6H33c2.2,0,4,1.8,4,4v32H11V9z"/><path fill="#64b5f6" d="M11 41H37V43H11z"/><path fill="#42a5f5" d="M16 34H22V39H16zM16 26H22V31H16zM26 26H32V31H26zM26 34H32V39H26zM16 18H22V23H16zM26 18H32V23H26zM16 10H22V15H16zM26 10H32V15H26z"/><path fill="#ffa726" d="M28,29.5c0-0.8,0.7-1.5,1.5-1.5s1.5,0.7,1.5,1.5S30.3,31,29.5,31S28,30.3,28,29.5 M41,29.5 c0,0.8,0.7,1.5,1.5,1.5s1.5-0.7,1.5-1.5S43.3,28,42.5,28S41,28.7,41,29.5"/><path fill="#ff9800" d="M32,38v-4h8v4c0,0,0,4-4,4S32,38,32,38z"/><path fill="#ffb74d" d="M29,30.1c0,3.8,3.1,6.9,7,6.9s7-3.1,7-6.9v-4.4c0-3.8-14-5.9-14,0V30.1z"/><path fill="#424242" d="M33.6,18l-0.8,1.6c-4,0.8-4.8,4.4-4.8,7.6V28l2,2v-4l2.8-3l9.2,3v4l2-2v-1.8c0-3.9-3.1-8.2-8-8.2 H33.6z"/><path fill="#784719" d="M34,29c0,0.6-0.4,1-1,1c-0.6,0-1-0.4-1-1s0.4-1,1-1C33.6,28,34,28.4,34,29 M40,29c0-0.6-0.4-1-1-1 c-0.6,0-1,0.4-1,1s0.4,1,1,1C39.6,30,40,29.6,40,29"/><path fill="#3f51b5" d="M32.3,38c0,0-8.3,1.6-8.3,10h24c0-8.5-8-10-8-10l-4,2l-4-2"/><path fill="#fff" d="M40 38L36 39 32 38 36 47z"/><path fill="#d32f2f" d="M38 41L36 39 34 41 35 42 34.7 44.1 36 47 37.3 44.1 37 42z"/></svg>