<svg xmlns="http://www.w3.org/2000/svg" viewBox="0 0 48 48" width="480px" height="480px"><path fill="#4CAF50" d="M39,42H9c-1.1,0-2-0.9-2-2l3-8L7,14h34l-2,6l2,20C41,41.1,40.1,42,39,42z"/><path fill="#2E7D32" d="M27 37H36V38H27zM33 31H35V36H33z"/><path fill="#2E7D32" d="M34 29L32 32 36 32zM28 31H30V36H28z"/><path fill="#2E7D32" d="M29 29L27 32 31 32z"/><path fill="#81C784" d="M43,14H6L5.6,9.4C5.3,8.2,6.2,7,7.5,6.9l33.5-0.9c1.1,0,2.1,0.9,2.1,2V14z"/><path fill="#429946" d="M10 32L9.1 34.5 11.5 38zM35.9 28.4L39.4 23.9 39 20z"/></svg>