<svg xmlns="http://www.w3.org/2000/svg" viewBox="0 0 48 48" width="480px" height="480px"><path fill="#9c27b0" d="M44,24c0,11.045-8.955,20-20,20S4,35.045,4,24S12.955,4,24,4S44,12.955,44,24z"/><path fill="#e1bee7" d="M17.168 27.92c0-3.539-6.797-2.048-6.797-7.539 0-.655.375-4.47 5.121-4.47 4.75 0 5.03 4.19 5.03 4.935h-3.259c0-.375 0-2.328-1.862-2.328-1.677 0-1.771 1.582-1.771 1.862 0 2.793 6.892 1.862 6.892 7.539 0 1.862-1.026 4.47-4.935 4.47-4.375 0-5.586-3.164-5.586-5.306h3.259c0 .466-.185 2.608 2.328 2.608C17.263 29.782 17.168 28.2 17.168 27.92zM26.853 16.191l2.979 11.543 2.979-11.543H37v16.013h-3.259V27.92l.28-6.703-3.168 10.987h-2.233l-3.164-10.987.276 6.703v4.284h-3.259V16.191H26.853z"/></svg>