<?xml version="1.0" encoding="UTF-8"?>
<svg xmlns="http://www.w3.org/2000/svg" xmlns:xlink="http://www.w3.org/1999/xlink" width="480pt" height="480pt" viewBox="0 0 480 480" version="1.1">
<g id="surface2247002">
<path style=" stroke:none;fill-rule:nonzero;fill:rgb(40.000001%,40.000001%,40.000001%);fill-opacity:1;" d="M 340 120 L 280 60 L 200 60 L 140 120 L 110 120 L 110 400 C 110 422 128 440 150 440 L 330 440 C 352 440 370 422 370 400 L 370 120 Z M 340 120 "/>
<path style=" stroke:none;fill-rule:nonzero;fill:rgb(58.431375%,64.705884%,65.098041%);fill-opacity:1;" d="M 245 390 L 235 390 C 227 390 220 383 220 375 L 220 185 C 220 177 227 170 235 170 L 245 170 C 253 170 260 177 260 185 L 260 375 C 260 383 253 390 245 390 Z M 315 390 C 307 390 300 383 300 375 L 300 185 C 300 177 307 170 315 170 C 323 170 330 177 330 185 L 330 375 C 330 383 323 390 315 390 Z M 165 390 C 157 390 150 383 150 375 L 150 185 C 150 177 157 170 165 170 C 173 170 180 177 180 185 L 180 375 C 180 383 173 390 165 390 Z M 165 390 "/>
<path style=" stroke:none;fill-rule:nonzero;fill:rgb(80.000001%,80.000001%,80.000001%);fill-opacity:1;" d="M 110 80 L 370 80 C 381 80 390 89 390 100 L 390 120 L 90 120 L 90 100 C 90 89 99 80 110 80 Z M 110 80 "/>
</g>
</svg>
