<?xml version="1.0" encoding="UTF-8"?>
<svg xmlns="http://www.w3.org/2000/svg" xmlns:xlink="http://www.w3.org/1999/xlink" width="480pt" height="480pt" viewBox="0 0 480 480" version="1.1">
<g id="surface1069686">
<path style=" stroke:none;fill-rule:nonzero;fill:rgb(56.470588%,54.901961%,58.039216%);fill-opacity:1;" d="M 90 150 L 390 150 C 412 150 430 168 430 190 L 430 370 L 50 370 L 50 190 C 50 168 68 150 90 150 Z M 90 150 "/>
<path style=" stroke:none;fill-rule:nonzero;fill:rgb(30.980392%,27.843137%,34.509804%);fill-opacity:1;" d="M 50 370 L 430 370 L 430 390 C 430 412 412 430 390 430 L 90 430 C 68 430 50 412 50 390 Z M 370 170 L 280 170 C 269 170 260 161 260 150 L 260 100 C 260 89 269 80 280 80 L 370 80 C 381 80 390 89 390 100 L 390 150 C 390 161 381 170 370 170 Z M 110 170 L 230 170 L 230 210 L 110 210 Z M 110 170 "/>
<path style=" stroke:none;fill-rule:nonzero;fill:rgb(56.470588%,79.215686%,97.647059%);fill-opacity:1;" d="M 230 50 L 210 60 L 190 50 L 170 60 L 150 50 L 130 60 L 110 50 L 110 190 L 230 190 Z M 230 50 "/>
<path style=" stroke:none;fill-rule:nonzero;fill:rgb(12.941176%,58.823529%,95.294118%);fill-opacity:1;" d="M 280 100 L 370 100 L 370 150 L 280 150 Z M 280 100 "/>
<path style=" stroke:none;fill-rule:nonzero;fill:rgb(92.54902%,92.54902%,87.45098%);fill-opacity:1;" d="M 100 230 L 140 230 L 140 270 L 100 270 Z M 160 230 L 200 230 L 200 270 L 160 270 Z M 220 230 L 260 230 L 260 270 L 220 270 Z M 280 230 L 320 230 L 320 270 L 280 270 Z M 340 230 L 380 230 L 380 270 L 340 270 Z M 100 290 L 140 290 L 140 330 L 100 330 Z M 160 290 L 200 290 L 200 330 L 160 330 Z M 220 290 L 260 290 L 260 330 L 220 330 Z M 280 290 L 320 290 L 320 330 L 280 330 Z M 340 290 L 380 290 L 380 330 L 340 330 Z M 240 385 C 231.714844 385 225 391.714844 225 400 C 225 408.285156 231.714844 415 240 415 C 248.285156 415 255 408.285156 255 400 C 255 391.714844 248.285156 385 240 385 Z M 240 385 "/>
</g>
</svg>
