<svg xmlns="http://www.w3.org/2000/svg" viewBox="0 0 48 48" width="480px" height="480px"><path fill="#FF9800" d="M37,43H11c-1.1,0-2-0.9-2-2V7c0-1.1,0.9-2,2-2h26c1.1,0,2,0.9,2,2v34C39,42.1,38.1,43,37,43z"/><path fill="#C77600" d="M9 23H39V25H9z"/><path fill="#8A5100" d="M27.5 31h-7c-.8 0-1.5-.7-1.5-1.5v0c0-.8.7-1.5 1.5-1.5h7c.8 0 1.5.7 1.5 1.5v0C29 30.3 28.3 31 27.5 31zM27.5 11h-7c-.8 0-1.5-.7-1.5-1.5v0C19 8.7 19.7 8 20.5 8h7C28.3 8 29 8.7 29 9.5v0C29 10.3 28.3 11 27.5 11z"/><path fill="#37474F" d="M22 -2.9H26V50.800000000000004H22z" transform="rotate(-45.001 24 24)"/></svg>