<svg xmlns="http://www.w3.org/2000/svg" viewBox="0 0 48 48" width="480px" height="480px"><path fill="#fff" d="M24 6A18 18 0 1 0 24 42A18 18 0 1 0 24 6Z"/><path fill="#00838f" d="M26,32H13c-0.6,0-1-0.4-1-1V17c0-0.6,0.4-1,1-1h12c0.6,0,1,0.4,1,1V32z"/><path fill="#5d4037" d="M20,32c0,1.7-1.3,3-3,3s-3-1.3-3-3s3,0,3-3C18.7,29,20,30.3,20,32"/><path fill="#ffb74d" d="M26,32V18h6.5c0.9,0,1.7,0.6,1.9,1.5L36,25v6c0,0.6-0.4,1-1,1H26z"/><path fill="#5d4037" d="M32,26h-3c-0.6,0-1-0.4-1-1v-4c0-0.6,0.4-1,1-1h2.2c0.5,0,0.9,0.3,1,0.8L33,24v1 C33,25.6,32.6,26,32,26z"/><path fill="#d50000" d="M5.7 22H42.5V26H5.7z" transform="rotate(-45.001 24.036 24.037)"/><path fill="#d50000" d="M24,4C13,4,4,13,4,24s9,20,20,20s20-9,20-20S35,4,24,4z M24,40c-8.8,0-16-7.2-16-16S15.2,8,24,8 s16,7.2,16,16S32.8,40,24,40z"/><path fill="#5d4037" d="M34,32c0,1.7-1.3,3-3,3s-3-1.3-3-3s1.3-3,3-3C32.7,29,34,30.3,34,32"/><path fill="#bcaaa4" d="M32.5,32c0,0.8-0.7,1.5-1.5,1.5s-1.5-0.7-1.5-1.5s0.7-1.5,1.5-1.5S32.5,31.2,32.5,32"/></svg>