<svg xmlns="http://www.w3.org/2000/svg" viewBox="0 0 48 48" width="480px" height="480px"><path fill="#6a1b9a" d="M25.991,14c0,0,2.526,1,5.009,1c2.483,0,5-1,5-1l1,5H25L25.991,14z"/><path fill="#ba68c8" d="M42.25 16.813C41.664 16.571 36 14 36 14s-.865 4-5 4-5-4-5-4-5.664 2.571-6.25 2.813C18.158 17.534 16 24 16 24l5 2 1-2v12h-4v-3l-6 5.014L18 43v-3h4 14 4V24l1 2 5-2C46 24 43.842 17.534 42.25 16.813zM11.991 5c0 0 2.526 1 5.009 1s5-1 5-1l1 5H11L11.991 5z"/><path fill="#e1bee7" d="M36,29.014L30,24v3h-4V15l1,2l5-2c0,0-2.158-6.466-3.75-7.188C27.664,7.571,22,5,22,5s-0.865,4-5,4s-5-4-5-4S6.336,7.571,5.75,7.813C4.158,8.534,2,15,2,15l5,2l1-2v16h4h14h4v3L36,29.014z"/></svg>