<svg xmlns="http://www.w3.org/2000/svg" viewBox="0 0 48 48" width="480px" height="480px"><path fill="#E8EAF6" d="M24,7.4L4,17.9V42h40V17.9L24,7.4z"/><path fill="#D32F2F" d="M2 17L24 6 46 17 46 20 46 21 24 10 2 21 2 20z"/><path fill="#C5CAE9" d="M44,42H4v-5h40V42z M24,12.2l20,9.9V22v-2L24,10L4,20v2v0.2L24,12.2z"/><path fill="#546E7A" d="M9 24H39V26H9z"/><path fill="#455A64" d="M9 26H39V42H9z"/><path fill="#90A4AE" d="M9 26H39V28H9z"/><path fill="#78909C" d="M39,28h-2v-2h2V28z M11,26H9v2h2V26z"/><path fill="#01579B" d="M21 17H27V21H21z"/><path fill="#263238" d="M9 28L9 37 9 42 14 37 34 37 39 42 39 37 39 28z"/></svg>