<svg xmlns="http://www.w3.org/2000/svg" viewBox="0 0 48 48" width="480px" height="480px"><path fill="#455A64" d="M42,43V21c0-3.866-3.134-7-7-7H13c-3.866,0-7,3.134-7,7v22H42z"/><path fill="#263238" d="M11 19H37V23H11z"/><path fill="#C5CAE9" d="M35 5L31 7 27 5 24 7 20 5 17 7 13 5 13 21 35 21z"/><path fill="#CDDC39" d="M11 26H37V32H11z"/><path fill="#3F51B5" d="M15 12H25V14H15zM30 12H33V14H30zM30 16H33V18H30zM15 16H22V18H15z"/><path fill="#FF1744" d="M36,40h-3c-0.552,0-1-0.448-1-1v-3c0-0.552,0.448-1,1-1h3c0.552,0,1,0.448,1,1v3C37,39.552,36.552,40,36,40"/><g><path fill="#E0E0E0" d="M15 40h-3c-.552 0-1-.448-1-1v-3c0-.552.448-1 1-1h3c.552 0 1 .448 1 1v3C16 39.552 15.552 40 15 40M22 40h-3c-.552 0-1-.448-1-1v-3c0-.552.448-1 1-1h3c.552 0 1 .448 1 1v3C23 39.552 22.552 40 22 40M29 40h-3c-.552 0-1-.448-1-1v-3c0-.552.448-1 1-1h3c.552 0 1 .448 1 1v3C30 39.552 29.552 40 29 40"/></g></svg>