<?xml version="1.0" encoding="UTF-8"?>
<svg xmlns="http://www.w3.org/2000/svg" xmlns:xlink="http://www.w3.org/1999/xlink" width="480pt" height="480pt" viewBox="0 0 480 480" version="1.1">
<g id="surface2092298">
<path style=" stroke:none;fill-rule:nonzero;fill:rgb(48.627451%,70.19608%,25.882354%);fill-opacity:1;" d="M 135 60.019531 C 93.578125 60.019531 60 93.597656 60 135.019531 C 60 176.441406 93.578125 210.019531 135 210.019531 C 176.421875 210.019531 210 176.441406 210 135.019531 C 210 93.597656 176.421875 60.019531 135 60.019531 Z M 135 270 C 93.578125 270 60 303.578125 60 345 C 60 386.421875 93.578125 420 135 420 C 176.421875 420 210 386.421875 210 345 C 210 303.578125 176.421875 270 135 270 Z M 345 270 C 303.578125 270 270 303.578125 270 345 C 270 386.421875 303.578125 420 345 420 C 386.421875 420 420 386.421875 420 345 C 420 303.578125 386.421875 270 345 270 Z M 345 270 "/>
<path style=" stroke:none;fill-rule:nonzero;fill:rgb(90.196079%,49.411765%,13.333334%);fill-opacity:1;" d="M 280 60 L 420 60 L 420 200 L 280 200 Z M 280 60 "/>
</g>
</svg>
