<svg xmlns="http://www.w3.org/2000/svg" viewBox="0 0 48 48" width="240px" height="240px"><path fill="#455a64" d="M5 30H7V42H5zM9 30H11V42H9zM13 30H15V42H13zM24 30H26V42H24zM17 30H22V42H17z"/><path fill="#fbc02d" d="M23,15v1.832c2.069,1.047,5,3.146,5,6.668V24c0,0.552,0.448,1,1,1h3V15H23z"/><path fill="#546e7a" d="M37,14l-15-0.001V16c0,0,9,0,9,7.5c0,1.253-0.319,2.423-0.872,3.416 c-0.082,0.147-0.128,0.308-0.128,0.476l0,1.021c0,0.355,0.26,0.771,0.575,0.933C31.872,30.012,34,30.056,34,34c0,4-1,3.813-1,5.5 c0,2.5,3.27,2.487,3.27,2.487c4.215,0,6.743-2.017,6.73-4.987C42.997,36.347,37,14,37,14z"/><path fill="#78909c" d="M12.875,19.944c-0.258,0.039-0.507,0.057-0.75,0.056c-5.148-0.027-6.824-8.756-7.118-12.177 C4.923,6.844,5.622,6,6.516,6h31.969C39.322,6,40,6.746,40,7.667V13.8c0,0.795-0.51,1.479-1.218,1.635 C38.782,15.435,19.103,18.999,12.875,19.944z"/></svg>